M48
; DRILL file {KiCad (5.1.12)-1} date 02/12/23 16:56:01
; FORMAT={-:-/ absolute / metric / decimal}
; #@! TF.CreationDate,2023-02-12T16:56:01+03:00
; #@! TF.GenerationSoftware,Kicad,Pcbnew,(5.1.12)-1
; #@! TF.FileFunction,Plated,1,2,PTH
FMAT,2
METRIC
T1C0.400
T2C0.800
T3C1.000
T4C3.200
%
G90
G05
T1
X171.42Y-57.94
X171.49Y-78.15
X171.51Y-56.03
X171.84Y-66.17
X172.51Y-42.7
X172.61Y-75.65
X174.29Y-76.32
X175.3Y-43.8
X175.87Y-52.65
X177.4Y-48.52
X177.43Y-43.8
X177.55Y-65.16
X177.56Y-63.6
X179.22Y-66.52
X179.22Y-75.1
X179.64Y-43.82
X179.69Y-48.58
X180.55Y-67.9
X180.82Y-66.22
X183.33Y-68.45
X184.47Y-51.34
X185.03Y-52.47
X187.3Y-56.31
X187.69Y-63.32
X188.04Y-54.94
X188.285Y-65.235
X188.42Y-56.3
X189.165Y-63.115
X192.5Y-50.22
T2
X167.28Y-54.69
X167.28Y-59.57
T3
X172.36Y-40.39
X174.18Y-82.03
X174.9Y-40.39
X175.565Y-84.87
X176.95Y-82.03
X177.44Y-40.39
X178.335Y-84.87
X179.72Y-82.03
X179.98Y-40.39
X181.105Y-84.87
X182.49Y-82.03
X183.875Y-84.87
X185.26Y-82.03
X192.81Y-67.0
X192.81Y-69.54
X192.81Y-72.08
X192.81Y-74.62
T4
X167.22Y-82.33
X192.22Y-82.33
T0
M30
